<svg width="132" height="60" viewBox="0 0 132 60" fill="none" xmlns="http://www.w3.org/2000/svg">
<rect x="0.5" y="0.5" width="131" height="59" rx="4.5" stroke="#9747FF" stroke-dasharray="10 5"/>
<g clip-path="url(#clip0_48851_894)">
<path d="M23.75 23.125C23.75 22.9592 23.8158 22.8003 23.9331 22.6831C24.0503 22.5658 24.2092 22.5 24.375 22.5H30.625C30.7908 22.5 30.9497 22.5658 31.0669 22.6831C31.1842 22.8003 31.25 22.9592 31.25 23.125V29.375C31.25 29.5408 31.1842 29.6997 31.0669 29.8169C30.9497 29.9342 30.7908 30 30.625 30H24.375C24.2092 30 24.0503 29.9342 23.9331 29.8169C23.8158 29.6997 23.75 29.5408 23.75 29.375V23.125Z" fill="#101828"/>
<path d="M21.25 22.5C21.25 21.837 21.5134 21.2011 21.9822 20.7322C22.4511 20.2634 23.087 20 23.75 20H31.25C31.913 20 32.5489 20.2634 33.0178 20.7322C33.4866 21.2011 33.75 21.837 33.75 22.5V32.5C34.413 32.5 35.0489 32.7634 35.5178 33.2322C35.9866 33.7011 36.25 34.337 36.25 35V35.625C36.25 35.7908 36.3158 35.9497 36.4331 36.0669C36.5503 36.1842 36.7092 36.25 36.875 36.25C37.0408 36.25 37.1997 36.1842 37.3169 36.0669C37.4342 35.9497 37.5 35.7908 37.5 35.625V30H36.875C36.7092 30 36.5503 29.9342 36.4331 29.8169C36.3158 29.6997 36.25 29.5408 36.25 29.375V25.4688C36.25 25.303 36.3158 25.144 36.4331 25.0268C36.5503 24.9096 36.7092 24.8438 36.875 24.8438H38.7437C38.73 24.2488 38.6775 23.7263 38.4925 23.3163C38.3935 23.0779 38.2209 22.8773 38 22.7437C37.77 22.6062 37.42 22.5 36.875 22.5C36.7092 22.5 36.5503 22.4342 36.4331 22.3169C36.3158 22.1997 36.25 22.0408 36.25 21.875C36.25 21.7092 36.3158 21.5503 36.4331 21.4331C36.5503 21.3158 36.7092 21.25 36.875 21.25C37.58 21.2483 38.1683 21.3883 38.64 21.67C39.1187 21.955 39.4325 22.3588 39.6325 22.8038C40.0013 23.6225 40 24.635 40 25.405V29.3737C40.0002 29.4559 39.9841 29.5373 39.9528 29.6133C39.9214 29.6893 39.8754 29.7583 39.8174 29.8165C39.7593 29.8747 39.6904 29.9208 39.6145 29.9523C39.5386 29.9838 39.4572 30 39.375 30H38.75V35.625C38.75 36.1223 38.5525 36.5992 38.2008 36.9508C37.8492 37.3025 37.3723 37.5 36.875 37.5C36.3777 37.5 35.9008 37.3025 35.5492 36.9508C35.1975 36.5992 35 36.1223 35 35.625V35C35 34.6685 34.8683 34.3505 34.6339 34.1161C34.3995 33.8817 34.0815 33.75 33.75 33.75V38.75H34.375C34.5408 38.75 34.6997 38.8158 34.8169 38.9331C34.9342 39.0503 35 39.2092 35 39.375C35 39.5408 34.9342 39.6997 34.8169 39.8169C34.6997 39.9342 34.5408 40 34.375 40H20.625C20.4592 40 20.3003 39.9342 20.1831 39.8169C20.0658 39.6997 20 39.5408 20 39.375C20 39.2092 20.0658 39.0503 20.1831 38.9331C20.3003 38.8158 20.4592 38.75 20.625 38.75H21.25V22.5ZM32.5 22.5C32.5 22.1685 32.3683 21.8505 32.1339 21.6161C31.8995 21.3817 31.5815 21.25 31.25 21.25H23.75C23.4185 21.25 23.1005 21.3817 22.8661 21.6161C22.6317 21.8505 22.5 22.1685 22.5 22.5V38.75H32.5V22.5Z" fill="#101828"/>
</g>
<path fill-rule="evenodd" clip-rule="evenodd" d="M63.5 24.375C63.5 23.8777 63.6975 23.4008 64.0492 23.0492C64.4008 22.6975 64.8777 22.5 65.375 22.5H66.625C67.1223 22.5 67.5992 22.6975 67.9508 23.0492C68.3025 23.4008 68.5 23.8777 68.5 24.375V25.625C68.5 26.1223 68.3025 26.5992 67.9508 26.9508C67.5992 27.3025 67.1223 27.5 66.625 27.5V28.75H73.5C73.6658 28.75 73.8247 28.8158 73.9419 28.9331C74.0592 29.0503 74.125 29.2092 74.125 29.375V30.625C74.125 30.7908 74.0592 30.9497 73.9419 31.0669C73.8247 31.1842 73.6658 31.25 73.5 31.25C73.3342 31.25 73.1753 31.1842 73.0581 31.0669C72.9408 30.9497 72.875 30.7908 72.875 30.625V30H66.625V30.625C66.625 30.7908 66.5592 30.9497 66.4419 31.0669C66.3247 31.1842 66.1658 31.25 66 31.25C65.8342 31.25 65.6753 31.1842 65.5581 31.0669C65.4408 30.9497 65.375 30.7908 65.375 30.625V30H59.125V30.625C59.125 30.7908 59.0592 30.9497 58.9419 31.0669C58.8247 31.1842 58.6658 31.25 58.5 31.25C58.3342 31.25 58.1753 31.1842 58.0581 31.0669C57.9408 30.9497 57.875 30.7908 57.875 30.625V29.375C57.875 29.2092 57.9408 29.0503 58.0581 28.9331C58.1753 28.8158 58.3342 28.75 58.5 28.75H65.375V27.5C64.8777 27.5 64.4008 27.3025 64.0492 26.9508C63.6975 26.5992 63.5 26.1223 63.5 25.625V24.375ZM66.625 26.25C66.7908 26.25 66.9497 26.1842 67.0669 26.0669C67.1842 25.9497 67.25 25.7908 67.25 25.625V24.375C67.25 24.2092 67.1842 24.0503 67.0669 23.9331C66.9497 23.8158 66.7908 23.75 66.625 23.75H65.375C65.2092 23.75 65.0503 23.8158 64.9331 23.9331C64.8158 24.0503 64.75 24.2092 64.75 24.375V25.625C64.75 25.7908 64.8158 25.9497 64.9331 26.0669C65.0503 26.1842 65.2092 26.25 65.375 26.25H66.625ZM56 34.375C56 33.8777 56.1975 33.4008 56.5492 33.0492C56.9008 32.6975 57.3777 32.5 57.875 32.5H59.125C59.6223 32.5 60.0992 32.6975 60.4508 33.0492C60.8025 33.4008 61 33.8777 61 34.375V35.625C61 36.1223 60.8025 36.5992 60.4508 36.9508C60.0992 37.3025 59.6223 37.5 59.125 37.5H57.875C57.3777 37.5 56.9008 37.3025 56.5492 36.9508C56.1975 36.5992 56 36.1223 56 35.625V34.375ZM57.875 33.75C57.7092 33.75 57.5503 33.8158 57.4331 33.9331C57.3158 34.0503 57.25 34.2092 57.25 34.375V35.625C57.25 35.7908 57.3158 35.9497 57.4331 36.0669C57.5503 36.1842 57.7092 36.25 57.875 36.25H59.125C59.2908 36.25 59.4497 36.1842 59.5669 36.0669C59.6842 35.9497 59.75 35.7908 59.75 35.625V34.375C59.75 34.2092 59.6842 34.0503 59.5669 33.9331C59.4497 33.8158 59.2908 33.75 59.125 33.75H57.875ZM63.5 34.375C63.5 33.8777 63.6975 33.4008 64.0492 33.0492C64.4008 32.6975 64.8777 32.5 65.375 32.5H66.625C67.1223 32.5 67.5992 32.6975 67.9508 33.0492C68.3025 33.4008 68.5 33.8777 68.5 34.375V35.625C68.5 36.1223 68.3025 36.5992 67.9508 36.9508C67.5992 37.3025 67.1223 37.5 66.625 37.5H65.375C64.8777 37.5 64.4008 37.3025 64.0492 36.9508C63.6975 36.5992 63.5 36.1223 63.5 35.625V34.375ZM65.375 33.75C65.2092 33.75 65.0503 33.8158 64.9331 33.9331C64.8158 34.0503 64.75 34.2092 64.75 34.375V35.625C64.75 35.7908 64.8158 35.9497 64.9331 36.0669C65.0503 36.1842 65.2092 36.25 65.375 36.25H66.625C66.7908 36.25 66.9497 36.1842 67.0669 36.0669C67.1842 35.9497 67.25 35.7908 67.25 35.625V34.375C67.25 34.2092 67.1842 34.0503 67.0669 33.9331C66.9497 33.8158 66.7908 33.75 66.625 33.75H65.375ZM71 34.375C71 33.8777 71.1975 33.4008 71.5492 33.0492C71.9008 32.6975 72.3777 32.5 72.875 32.5H74.125C74.6223 32.5 75.0992 32.6975 75.4508 33.0492C75.8025 33.4008 76 33.8777 76 34.375V35.625C76 36.1223 75.8025 36.5992 75.4508 36.9508C75.0992 37.3025 74.6223 37.5 74.125 37.5H72.875C72.3777 37.5 71.9008 37.3025 71.5492 36.9508C71.1975 36.5992 71 36.1223 71 35.625V34.375ZM72.875 33.75C72.7092 33.75 72.5503 33.8158 72.4331 33.9331C72.3158 34.0503 72.25 34.2092 72.25 34.375V35.625C72.25 35.7908 72.3158 35.9497 72.4331 36.0669C72.5503 36.1842 72.7092 36.25 72.875 36.25H74.125C74.2908 36.25 74.4497 36.1842 74.5669 36.0669C74.6842 35.9497 74.75 35.7908 74.75 35.625V34.375C74.75 34.2092 74.6842 34.0503 74.5669 33.9331C74.4497 33.8158 74.2908 33.75 74.125 33.75H72.875Z" fill="#101828"/>
<path d="M109.488 28.6242C109.479 28.5829 109.465 28.5426 109.448 28.5039L107.973 25.0602C107.632 24.2645 106.805 23.75 105.863 23.75H98.1371C97.1961 23.75 96.3676 24.2645 96.0277 25.0602L94.5504 28.5039C94.5168 28.5816 94.4996 28.6654 94.5 28.75V35.625C94.5 35.7908 94.5659 35.9497 94.6831 36.0669C94.8003 36.1842 94.9592 36.25 95.125 36.25H96.375C96.5408 36.25 96.6997 36.1842 96.8169 36.0669C96.9342 35.9497 97 35.7908 97 35.625V35H107V35.625C107 35.7908 107.066 35.9497 107.183 36.0669C107.3 36.1842 107.459 36.25 107.625 36.25H108.875C109.041 36.25 109.2 36.1842 109.317 36.0669C109.434 35.9497 109.5 35.7908 109.5 35.625V28.75C109.5 28.7078 109.496 28.6656 109.488 28.6242ZM97.625 32.5C97.3778 32.5 97.1361 32.4267 96.9305 32.2893C96.725 32.152 96.5648 31.9568 96.4702 31.7284C96.3755 31.4999 96.3508 31.2486 96.399 31.0061C96.4473 30.7637 96.5663 30.5409 96.7411 30.3661C96.9159 30.1913 97.1387 30.0722 97.3811 30.024C97.6236 29.9758 97.875 30.0005 98.1034 30.0952C98.3318 30.1898 98.527 30.35 98.6643 30.5555C98.8017 30.7611 98.875 31.0028 98.875 31.25C98.875 31.5815 98.7433 31.8995 98.5089 32.1339C98.2745 32.3683 97.9565 32.5 97.625 32.5ZM106.375 32.5C106.128 32.5 105.886 32.4267 105.681 32.2893C105.475 32.152 105.315 31.9568 105.22 31.7284C105.126 31.4999 105.101 31.2486 105.149 31.0061C105.197 30.7637 105.316 30.5409 105.491 30.3661C105.666 30.1913 105.889 30.0722 106.131 30.024C106.374 29.9758 106.625 30.0005 106.853 30.0952C107.082 30.1898 107.277 30.35 107.414 30.5555C107.552 30.7611 107.625 31.0028 107.625 31.25C107.625 31.5815 107.493 31.8995 107.259 32.1339C107.024 32.3683 106.707 32.5 106.375 32.5ZM96.0727 28.125L97.1754 25.5527C97.3168 25.2223 97.7031 25 98.1371 25H105.863C106.296 25 106.683 25.2223 106.825 25.5527L107.927 28.125H96.0727Z" fill="black"/>
<defs>
<clipPath id="clip0_48851_894">
<rect width="20" height="20" fill="white" transform="translate(20 20)"/>
</clipPath>
</defs>
</svg>
