<svg width="56" height="92" viewBox="0 0 56 92" fill="none" xmlns="http://www.w3.org/2000/svg">
<rect x="0.5" y="0.5" width="55" height="91" rx="4.5" stroke="#9747FF" stroke-dasharray="10 5"/>
<path d="M27.5578 20.8382C27.7454 20.4826 28.2546 20.4826 28.4422 20.8382L30.3305 24.417C30.4028 24.5542 30.5347 24.65 30.6874 24.6764L34.6747 25.3663C35.0708 25.4348 35.2282 25.9192 34.948 26.2075L32.1277 29.1092C32.0197 29.2204 31.9693 29.3754 31.9914 29.5289L32.5674 33.5341C32.6246 33.932 32.2126 34.2314 31.8519 34.054L28.2206 32.2685C28.0815 32.2001 27.9185 32.2001 27.7794 32.2685L24.1481 34.054C23.7874 34.2314 23.3754 33.932 23.4326 33.5341L24.0086 29.5289C24.0307 29.3754 23.9803 29.2204 23.8723 29.1092L21.052 26.2075C20.7718 25.9192 20.9292 25.4348 21.3253 25.3663L25.3126 24.6764C25.4653 24.65 25.5972 24.5542 25.6695 24.417L27.5578 20.8382Z" fill="#FFC531"/>
<path d="M27.5578 56.8382C27.7454 56.4826 28.2546 56.4826 28.4422 56.8382L30.3305 60.417C30.4028 60.5542 30.5347 60.65 30.6874 60.6764L34.6747 61.3663C35.0708 61.4348 35.2282 61.9192 34.948 62.2075L32.1277 65.1092C32.0197 65.2204 31.9693 65.3754 31.9914 65.5289L32.5674 69.5341C32.6246 69.932 32.2126 70.2314 31.8519 70.054L28.2206 68.2685C28.0815 68.2001 27.9185 68.2001 27.7794 68.2685L24.1481 70.054C23.7874 70.2314 23.3754 69.932 23.4326 69.5341L24.0086 65.5289C24.0307 65.3754 23.9803 65.2204 23.8723 65.1092L21.052 62.2075C20.7718 61.9192 20.9292 61.4348 21.3253 61.3663L25.3126 60.6764C25.4653 60.65 25.5972 60.5542 25.6695 60.417L27.5578 56.8382Z" fill="#DADDE1"/>
</svg>
